<svg id="Layer_1" data-name="Layer 1" xmlns="http://www.w3.org/2000/svg" viewBox="0 0 512 512"><defs><style>.cls-1{fill:#fafafa;}.cls-2{fill:#ffa64d;}</style></defs><title>Монтажная область 1</title><path class="cls-1" d="M512,245.34V394.67a10.66,10.66,0,0,1-7.49,10.18L163.18,511.51A10.08,10.08,0,0,1,160,512a10.66,10.66,0,0,1-5.29-1.4L5.38,425.26A10.67,10.67,0,0,1,0,416V266.67c0-.23.17-.43.17-.66a10.48,10.48,0,0,1,1.15-4.33c.09-.15.13-.3.22-.45a10.72,10.72,0,0,1,3.32-3.35c.17-.11.26-.34.45-.45s.71-.12,1-.27a10.34,10.34,0,0,1,1.6-.79l156.69-41.79,90.88-109.06C271.74,86,300.93,79.88,323.69,91.27l29.8,14.89,9.92-24.79a10.64,10.64,0,0,1,5.14-5.59l9.37-4.67a20.62,20.62,0,0,1,7.59-15.6L445.33,7.66A35.21,35.21,0,0,1,467.2,0H477a35,35,0,0,1,9.63,68.63L404.42,92.14a21.5,21.5,0,0,1-5.89.81,20.6,20.6,0,0,1-10.67-3l-6.14,3.07-9.07,22.68,78.17,39.08a33,33,0,0,1,7.91,53.89l47.89,27.37c.22.13.32.32.52.45s.36.1.51.21c.34.24.47.62.77.9a10.37,10.37,0,0,1,1.92,2.26,11.09,11.09,0,0,1,.72,1.47,10.71,10.71,0,0,1,.71,2.94C511.79,244.68,512,245,512,245.34ZM490.67,386.82v-127l-320,100v127ZM480.79,48.11A13.65,13.65,0,0,0,477,21.34H467.2a13.65,13.65,0,0,0-8.51,3L403.24,68.68a8.1,8.1,0,0,1,1,1.21.22.22,0,0,0,0,.11ZM161.26,340.44l313.54-98-40-22.85L393.37,230a10.53,10.53,0,0,1-.22,10.19,10.66,10.66,0,0,1-9.15,5.17,10.52,10.52,0,0,1-5.48-1.54l-11.93-7.15-41,10.27A10.65,10.65,0,0,1,320,266.67a10.89,10.89,0,0,1-5.5-1.51l-18.18-10.93-41,10.26,6.21,3.72A10.66,10.66,0,0,1,256,288a10.79,10.79,0,0,1-5.48-1.51L226,271.81l-41,10.24,12.48,7.49a10.66,10.66,0,0,1-11,18.28l-30.74-18.45-35.84,9a10.28,10.28,0,0,1-2.61.34,10.67,10.67,0,0,1-8.19-17.49L141,243,38.51,270.3ZM448,184.84a12.17,12.17,0,0,0-6.72-11l-76.6-38.29-2.82,7a10.61,10.61,0,0,1-4.42,5.18l-106.66,64a10.45,10.45,0,0,1-5.49,1.54,10.68,10.68,0,0,1-5.5-19.82L343.4,131.35l2.16-5.37-31.34-15.66a35.79,35.79,0,0,0-15.6-3.65,34.73,34.73,0,0,0-26.7,12.5L146.48,269.72,433.56,198l.08,0,5.19-1.3A12.14,12.14,0,0,0,448,184.84ZM149.33,483V358.19l-128-73.13V409.82Z"/><path class="cls-2" d="M490.69,35a13.71,13.71,0,0,1-9.9,13.12L404.22,70a.22.22,0,0,1,0-.11,8.1,8.1,0,0,0-1-1.21l55.45-44.36a13.65,13.65,0,0,1,8.51-3H477A13.66,13.66,0,0,1,490.69,35Z"/><path class="cls-2" d="M441.32,173.87a12.22,12.22,0,0,1-2.49,22.76l-5.19,1.3-.08,0L146.48,269.72,271.92,119.17a34.73,34.73,0,0,1,26.7-12.5,35.79,35.79,0,0,1,15.6,3.65L345.56,126l-2.16,5.37L239.83,193.52a10.68,10.68,0,0,0,5.5,19.82,10.45,10.45,0,0,0,5.49-1.54l106.66-64a10.61,10.61,0,0,0,4.42-5.18l2.82-7Z"/></svg>