<svg id="Слой_1" data-name="Слой 1" xmlns="http://www.w3.org/2000/svg" viewBox="0 0 498.39 559.09"><defs><style>.cls-1{fill:#fafafa;}.cls-2{fill:#ffa64d;}</style></defs><title>Монтажная область 1</title><g id="surface1"><path class="cls-1" d="M498.14,275.86v60.47a11.52,11.52,0,0,1-11.52,11.52h-15v23a11.52,11.52,0,0,1-11.52,11.52H418.79a174,174,0,0,1-17.17,41.23l29.26,29.25a11.51,11.51,0,0,1,0,16.24l-48.95,49a11.51,11.51,0,0,1-16.24,0l-29.25-29.25A174.33,174.33,0,0,1,295.21,506v41.35a11.52,11.52,0,0,1-11.52,11.51h-69.1a11.52,11.52,0,0,1-11.52-11.51V506A174,174,0,0,1,162,488.82L132.7,518.07a11.51,11.51,0,0,1-16.24,0l-48.95-49a11.51,11.51,0,0,1,0-16.24l29.25-29.25A174.4,174.4,0,0,1,79.6,382.4H38.25a11.52,11.52,0,0,1-11.51-11.52v-23h-15A11.52,11.52,0,0,1,.25,336.33V275.86a11.5,11.5,0,0,1,7-10.59l22-9.33V240.62A218.83,218.83,0,0,1,175.89,33.31V11.77A11.52,11.52,0,0,1,187.4.25H310.64a11.52,11.52,0,0,1,11.51,11.52V33.19A218.85,218.85,0,0,1,468.77,240.51v15.2L491,265.27A11.51,11.51,0,0,1,498.14,275.86Zm-22.92,48.95V283.69L453,274.13a11.48,11.48,0,0,1-7-10.59v-23A195.8,195.8,0,0,0,322.38,57.72V227.38a11.52,11.52,0,0,1-11.51,11.51H187.4a11.51,11.51,0,0,1-11.51-11.51V57.72A195.8,195.8,0,0,0,52.42,240.27v23a11.47,11.47,0,0,1-7,10.59l-22.22,9.56v41.35Zm-26.49,34.55-.11-11.51H343.23a94.9,94.9,0,0,1-188.42,0H49.54v11.51H87.89a11.52,11.52,0,0,1,11.52,9.1,151.84,151.84,0,0,0,21.42,50.45,11.51,11.51,0,0,1-1.49,14.39L91.81,460.83l32.59,32.6,27.53-27.53a11.52,11.52,0,0,1,14.4-1.5A150.84,150.84,0,0,0,217,485.48,11.51,11.51,0,0,1,226.1,497v39.16h46.07V497.34a11.5,11.5,0,0,1,9.1-11.52,151.52,151.52,0,0,0,50.67-21.07,11.51,11.51,0,0,1,14.4,1.49l27.53,27.53,32.94-32.71-27.53-27.53a11.5,11.5,0,0,1-1.49-14.39,151.49,151.49,0,0,0,21.07-50.68,11.52,11.52,0,0,1,11.52-9.1ZM320.08,347.85H178.19a71.87,71.87,0,0,0,141.89,0Zm-21-132V23.41H198.69l.23,192.45Z"/><path class="cls-2" d="M448.62,347.85l.11,11.51H410.38a11.52,11.52,0,0,0-11.52,9.1,151.49,151.49,0,0,1-21.07,50.68,11.5,11.5,0,0,0,1.49,14.39l27.53,27.53-32.94,32.71-27.53-27.53a11.51,11.51,0,0,0-14.4-1.49,151.52,151.52,0,0,1-50.67,21.07,11.5,11.5,0,0,0-9.1,11.52v38.81H226.1V497a11.51,11.51,0,0,0-9.1-11.51,150.84,150.84,0,0,1-50.67-21.08,11.52,11.52,0,0,0-14.4,1.5L124.4,493.43l-32.59-32.6,27.53-27.53a11.51,11.51,0,0,0,1.49-14.39,151.84,151.84,0,0,1-21.42-50.45,11.52,11.52,0,0,0-11.52-9.1H49.54V347.85H154.81a94.9,94.9,0,0,0,188.42,0Z"/></g></svg>